<?xml version="1.0" standalone="no"?>
<!DOCTYPE svg PUBLIC "-//W3C//DTD SVG 20010904//EN"
 "http://www.w3.org/TR/2001/REC-SVG-20010904/DTD/svg10.dtd">
<svg version="1.0" xmlns="http://www.w3.org/2000/svg"
 width="358.000000pt" height="358.000000pt" viewBox="0 0 358.000000 358.000000"
 preserveAspectRatio="xMidYMid meet">
<metadata>
Created by potrace 1.16, written by Peter Selinger 2001-2019
</metadata>
<g transform="translate(0.000000,358.000000) scale(0.100000,-0.100000)"
fill="#000000" stroke="none">
<path d="M2023 2545 c-106 -46 -150 -102 -202 -255 l-40 -120 297 0 c269 0
301 2 338 19 51 23 120 84 141 125 16 31 83 223 83 238 0 4 -132 8 -292 8
-228 -1 -300 -4 -325 -15z"/>
<path d="M1373 2121 c-59 -27 -99 -59 -128 -102 -16 -22 -88 -223 -181 -500
-84 -254 -154 -464 -154 -466 0 -2 69 -3 153 -3 165 1 199 8 269 56 59 41 87
90 138 238 l45 131 205 5 c200 5 206 6 250 32 54 31 106 81 126 120 16 31 74
201 74 217 0 8 -77 11 -260 11 -164 0 -260 4 -260 10 0 5 20 68 45 140 l44
130 -162 0 c-137 0 -168 -3 -204 -19z"/>
</g>
</svg>
