<?xml version="1.0" standalone="no"?>
<!DOCTYPE svg PUBLIC "-//W3C//DTD SVG 20010904//EN"
 "http://www.w3.org/TR/2001/REC-SVG-20010904/DTD/svg10.dtd">
<svg version="1.0" xmlns="http://www.w3.org/2000/svg"
 width="742.000000pt" height="857.000000pt" viewBox="0 0 742.000000 857.000000"
 preserveAspectRatio="xMidYMid meet">

<g transform="translate(0.000000,857.000000) scale(0.100000,-0.100000)"
fill="#000000" stroke="none">
<path d="M3627 8495 c-139 -105 -339 -289 -442 -407 -20 -24 -66 -74 -103
-111 l-66 -69 -20 37 c-58 103 -147 228 -293 410 -41 51 -77 91 -89 98 -17 10
-29 -18 -96 -218 -50 -152 -119 -334 -163 -436 -14 -31 -25 -59 -25 -63 0 -6
-100 -237 -107 -245 -1 -2 -46 37 -100 86 -54 49 -131 116 -172 149 -41 32
-86 69 -100 81 -14 12 -31 22 -37 23 -16 0 -24 -36 -19 -84 5 -45 24 -516 26
-661 l2 -90 -64 3 c-280 12 -385 12 -402 -1 -18 -12 -16 -15 23 -42 38 -26 83
-65 183 -156 l39 -35 -86 -63 c-201 -146 -435 -362 -604 -556 -506 -585 -808
-1279 -894 -2060 -17 -156 -17 -594 0 -750 118 -1069 655 -2000 1513 -2627
511 -373 1094 -602 1744 -685 198 -25 672 -25 870 0 462 59 893 192 1275 394
946 500 1622 1352 1885 2376 79 308 110 569 110 917 0 269 -11 402 -51 637
-162 949 -704 1812 -1497 2381 -96 69 -278 183 -413 258 l-37 21 62 47 c33 26
61 50 61 54 -1 47 -137 69 -462 74 -109 2 -198 6 -198 9 0 3 39 68 86 145 48
76 106 172 131 213 24 41 55 87 68 103 30 36 31 54 5 68 -22 12 -369 -3 -455
-20 -156 -30 -219 -40 -251 -40 -30 0 -35 3 -29 18 4 9 15 46 25 82 50 175
150 439 200 532 26 47 -7 55 -107 28 -114 -32 -349 -124 -450 -177 -211 -109
-279 -146 -295 -160 -9 -8 -18 -11 -21 -6 -3 4 -15 118 -26 253 -28 318 -27
310 -54 309 -12 0 -48 -20 -80 -44z m91 -162 c14 -210 31 -376 42 -394 6 -9
24 -2 72 27 195 121 778 367 806 339 3 -3 -2 -18 -11 -33 -23 -35 -74 -143
-93 -196 -42 -117 -134 -410 -134 -427 0 -16 7 -19 49 -19 26 0 73 5 102 10
194 38 363 58 526 62 88 3 91 2 81 -17 -6 -11 -14 -22 -18 -25 -7 -5 -103
-155 -237 -373 -30 -48 -53 -95 -51 -105 3 -15 24 -18 198 -24 197 -7 406 -23
435 -34 8 -3 15 -10 15 -14 0 -4 -34 -33 -75 -64 -89 -67 -262 -231 -317 -300
l-39 -49 33 -15 c121 -54 305 -149 372 -193 91 -60 97 -52 -69 -93 -119 -29
-295 -82 -334 -100 -30 -14 -37 -31 -23 -59 8 -18 37 -105 67 -204 8 -29 -4
-29 -35 0 -14 12 -41 34 -60 47 -19 13 -39 30 -45 37 -19 24 -118 92 -126 87
-5 -3 -9 -22 -9 -42 0 -77 -14 -67 -94 66 -42 71 -84 136 -94 144 -72 62 -410
228 -471 231 -21 2 -25 -2 -23 -18 17 -99 21 -155 28 -320 4 -104 5 -188 2
-185 -3 3 -44 82 -92 175 -82 160 -110 205 -120 194 -2 -2 -9 -44 -15 -94 -6
-49 -12 -101 -15 -115 -2 -14 -7 -68 -11 -120 -13 -179 -60 -578 -69 -587 -2
-2 -6 25 -10 59 -17 155 -106 525 -175 728 -71 208 -149 391 -173 406 -32 20
-438 19 -613 -1 -348 -40 -687 -157 -793 -273 -52 -58 -137 -194 -231 -372
-40 -74 -76 -142 -81 -150 -26 -42 -61 -113 -89 -185 -18 -44 -34 -82 -37 -84
-7 -8 -3 189 7 299 4 52 20 158 34 235 14 77 31 167 36 199 6 32 14 67 19 76
5 9 12 39 16 67 6 47 4 55 -27 100 -39 57 -201 219 -265 265 -24 17 -44 37
-44 44 0 6 -10 15 -22 20 -34 12 188 16 313 6 74 -7 108 -6 116 2 10 9 10 82
-2 356 -8 190 -17 366 -21 391 -3 26 -1 49 4 52 10 7 164 -116 287 -227 44
-40 90 -78 102 -85 25 -13 19 -22 95 149 27 61 125 299 156 380 13 36 50 144
81 240 31 96 60 177 66 179 17 8 273 -337 343 -460 53 -93 45 -96 186 54 139
146 405 398 476 449 25 18 51 38 58 45 7 7 17 13 21 13 4 0 13 -80 19 -177z
m1819 -1505 c805 -473 1401 -1245 1652 -2138 46 -165 82 -338 108 -520 25
-180 25 -740 0 -920 -40 -281 -107 -550 -199 -800 -58 -159 -222 -494 -309
-634 l-62 -100 -29 95 c-74 242 -164 501 -218 627 -33 76 -68 172 -78 213 -18
70 -57 174 -72 192 -4 5 -48 -8 -97 -27 -50 -20 -95 -36 -100 -36 -22 0 -51
113 -99 380 -33 189 -41 221 -87 340 -44 116 -59 137 -133 186 -77 51 -81 49
-90 -53 -13 -162 10 -577 42 -764 10 -53 14 -104 11 -112 -3 -9 -32 -28 -64
-43 -32 -15 -87 -45 -121 -66 -51 -31 -67 -36 -78 -27 -8 6 -14 16 -14 21 0 6
-9 22 -20 37 -16 23 -21 58 -32 205 -10 153 -10 217 5 464 19 306 38 503 48
487 3 -5 0 -66 -7 -135 -7 -69 -20 -237 -27 -375 -22 -390 1 -659 57 -681 7
-3 65 23 130 57 89 46 116 65 112 78 -14 48 -36 249 -46 416 -6 105 -12 215
-15 245 -4 56 9 272 21 348 3 23 12 42 18 42 7 0 36 -33 66 -72 30 -40 64 -84
77 -98 13 -15 43 -78 69 -140 44 -111 58 -169 104 -420 30 -164 63 -289 77
-295 7 -2 46 9 87 25 41 17 83 30 94 30 22 0 80 37 94 60 11 17 -51 135 -133
256 -57 85 -94 163 -178 379 -67 171 -143 344 -171 385 -9 14 -33 54 -53 90
-21 36 -46 76 -56 90 -21 28 -131 201 -206 325 -27 44 -73 120 -103 169 -69
113 -150 276 -195 391 -19 50 -56 142 -81 206 -58 148 -84 231 -92 294 -3 28
-12 81 -20 120 -9 41 -13 88 -9 115 6 45 -10 170 -25 200 -5 9 -25 22 -47 29
-21 8 -41 19 -45 25 -10 14 -10 66 0 66 4 0 35 -25 69 -55 33 -30 66 -55 71
-55 27 0 16 67 -31 197 -9 22 -17 60 -19 83 l-3 43 80 27 c105 36 299 89 364
99 28 4 54 11 57 14 15 14 -12 47 -69 85 -75 49 -317 175 -369 192 -21 6 -38
14 -38 17 0 4 50 57 112 119 l111 113 58 -30 c32 -16 98 -52 146 -81z m-3790
-273 c-5 -41 -8 -54 -20 -90 -4 -11 -16 -72 -27 -135 -11 -63 -25 -137 -30
-165 -33 -161 -55 -652 -29 -643 6 2 29 49 51 103 21 55 49 123 63 150 l24 50
0 -101 c1 -88 9 -161 27 -242 7 -33 20 -20 61 64 20 40 38 72 39 71 2 -2 8
-44 14 -94 5 -50 19 -112 30 -138 11 -26 20 -65 20 -88 0 -39 5 -47 79 -118
57 -56 87 -95 110 -142 17 -36 31 -70 31 -76 0 -6 4 -19 10 -29 13 -22 80
-258 80 -281 0 -9 7 -41 15 -71 8 -30 22 -92 30 -137 8 -45 27 -119 41 -165
33 -103 169 -375 229 -457 71 -96 197 -216 368 -349 264 -205 337 -245 457
-245 74 0 218 32 303 68 42 17 43 16 22 -25 -15 -28 -14 -29 34 -65 51 -36
113 -120 133 -177 10 -28 9 -34 -13 -52 -40 -35 -153 -168 -196 -232 -23 -33
-67 -94 -97 -135 -63 -83 -177 -305 -200 -389 -45 -164 -56 -210 -56 -229 0
-15 -6 -21 -22 -21 -38 0 -86 -23 -97 -46 -6 -15 -7 -61 -1 -136 46 -584 50
-658 39 -658 -4 0 -20 11 -36 24 -52 43 -118 80 -163 92 -44 11 -46 13 -77 87
-47 111 -92 174 -155 211 l-53 32 -6 90 c-7 87 -27 150 -64 194 -7 8 -20 51
-30 95 -19 89 -48 158 -79 193 -19 21 -21 37 -22 155 -1 119 -5 141 -32 222
-46 134 -79 220 -103 267 -23 45 -61 134 -109 258 -17 42 -43 97 -60 123 -17
26 -37 64 -46 85 -16 38 -59 241 -69 322 -2 25 -14 87 -25 138 -20 93 -27 191
-29 375 -1 121 -12 137 -96 137 -51 0 -59 -3 -100 -41 -36 -34 -49 -54 -66
-111 -18 -61 -20 -89 -16 -246 2 -97 7 -188 11 -202 8 -30 27 -471 20 -482
-11 -17 -22 -7 -38 35 -10 23 -30 69 -46 102 -16 33 -34 82 -40 110 -6 27 -25
75 -42 105 -48 86 -134 262 -143 290 -4 14 -20 54 -35 90 -16 36 -46 112 -67
170 -36 97 -41 105 -67 108 -20 3 -45 -7 -82 -33 -65 -45 -70 -63 -60 -212 7
-112 43 -265 82 -351 13 -29 24 -57 24 -63 0 -5 9 -27 20 -47 23 -42 85 -203
96 -248 4 -16 13 -38 20 -49 23 -32 17 -43 -23 -43 -40 -1 -122 -39 -162 -75
-28 -26 -51 -76 -51 -112 0 -15 -12 -36 -30 -53 -42 -39 -120 -202 -120 -252
0 -70 32 -150 129 -322 19 -33 40 -97 56 -164 13 -61 32 -127 40 -149 16 -37
16 -40 -8 -84 -29 -53 -81 -293 -97 -445 -11 -103 -2 -188 25 -251 18 -43 182
-201 380 -366 94 -78 204 -174 245 -212 l75 -70 -50 28 c-275 154 -623 434
-850 685 -512 566 -820 1230 -922 1985 -25 189 -25 715 0 905 134 998 640
1861 1441 2457 l101 75 43 -48 c39 -44 43 -53 39 -89z m182 -520 c-10 -60 -22
-166 -25 -235 -6 -116 -9 -130 -43 -202 -20 -42 -39 -77 -43 -77 -4 -1 -6 90
-5 202 l3 202 38 70 c60 110 88 157 91 153 2 -2 -5 -52 -16 -113z m1716 105
c-33 -4 -80 -11 -105 -15 -25 -4 -42 -4 -37 0 10 12 81 23 147 22 l55 0 -60
-7z m-215 -19 c-21 -12 -193 -30 -406 -41 -98 -5 -192 -14 -209 -19 -54 -18
369 -1 521 20 77 11 194 21 260 22 l119 2 3 -49 c2 -27 9 -58 16 -70 7 -11 21
-56 31 -98 15 -60 16 -80 7 -91 -10 -11 -8 -19 7 -39 16 -20 41 -117 45 -177
1 -8 -10 -17 -23 -21 -33 -8 -38 -28 -9 -32 30 -4 30 -22 1 -26 -13 -2 -23 -8
-23 -14 0 -7 14 -8 36 -5 l35 6 -3 -42 -3 -42 -110 -38 c-106 -38 -325 -78
-570 -106 -240 -28 -719 -20 -832 14 -91 27 -135 84 -154 195 -4 25 -14 88
-23 140 -10 52 -18 147 -18 211 -1 104 1 119 22 157 18 32 30 42 49 42 14 1
49 2 76 4 28 2 124 7 214 11 141 7 164 10 168 25 4 14 24 18 126 23 272 15
316 18 422 27 61 6 130 12 155 14 25 1 54 3 65 4 16 1 17 0 5 -7z m-857 -58
c-24 -2 -62 -2 -85 0 -24 2 -5 4 42 4 47 0 66 -2 43 -4z m-300 -10 c-7 -2 -21
-2 -30 0 -10 3 -4 5 12 5 17 0 24 -2 18 -5z m90 0 c-13 -2 -35 -2 -50 0 -16 2
-5 4 22 4 28 0 40 -2 28 -4z m2700 -341 c47 -53 81 -344 58 -491 -7 -41 -15
-80 -20 -85 -4 -6 -18 -39 -31 -74 -12 -34 -26 -65 -30 -67 -10 -6 -51 -84
-55 -105 -14 -60 -49 -168 -65 -200 -23 -44 -34 -50 -105 -50 l-54 0 -60 -182
c-74 -228 -119 -325 -214 -458 -65 -91 -254 -297 -312 -341 -11 -8 -67 -52
-125 -98 -111 -88 -124 -98 -260 -178 -171 -101 -235 -122 -367 -123 -72 0
-90 4 -155 34 -40 19 -102 56 -137 82 -252 192 -309 239 -384 318 -37 39 -79
90 -93 113 -29 49 -27 58 35 118 42 40 52 65 26 65 -8 0 -15 -3 -15 -7 -1 -5
-21 -30 -45 -57 -53 -59 -55 -59 -114 57 -51 101 -48 113 42 154 31 15 57 32
57 40 0 22 -23 15 -93 -27 -36 -22 -69 -40 -72 -40 -7 0 -40 74 -65 147 -16
46 -17 55 -4 67 16 17 116 56 142 56 10 0 27 7 38 15 18 13 17 14 -17 15 -39
0 -137 -26 -156 -42 -24 -19 -37 -1 -54 73 -10 41 -32 130 -49 199 -16 69 -39
167 -51 218 -11 52 -27 112 -35 134 -8 22 -14 56 -14 75 0 33 1 34 33 29 122
-20 153 -28 178 -43 105 -66 428 -285 444 -301 18 -18 49 -69 79 -129 12 -24
33 -25 28 -2 -2 8 -24 52 -50 98 -47 83 -105 150 -197 226 -60 49 -115 105
-115 116 0 5 84 8 188 8 117 -1 236 5 317 15 72 9 171 21 221 26 50 5 99 12
108 16 22 8 20 -1 -6 -33 -76 -90 -159 -173 -175 -173 -6 0 -19 -7 -28 -16
-13 -13 -18 -14 -31 -3 -19 16 -64 103 -64 124 0 8 -4 15 -10 15 -19 0 -10
-64 16 -107 26 -45 100 -107 115 -97 12 7 11 32 -1 36 -6 2 9 3 33 3 30 0 52
7 72 23 17 13 64 48 105 78 41 29 80 57 85 61 6 5 28 21 50 37 22 16 57 45 77
64 30 28 49 37 95 43 83 12 399 118 528 178 102 47 135 58 135 46 0 -2 18 -66
41 -142 23 -76 50 -172 61 -213 11 -41 24 -83 30 -95 11 -19 12 -19 24 10 7
17 13 43 14 59 0 54 10 20 29 -103 26 -175 47 -189 67 -43 7 48 19 121 27 162
15 72 24 142 48 375 13 124 41 188 118 266 55 54 57 56 103 51 26 -2 53 -11
61 -20z m-293 -175 c-5 -17 -14 -93 -20 -167 -6 -74 -22 -193 -35 -265 -13
-71 -27 -152 -31 -179 -9 -63 -19 -45 -39 70 -18 106 -23 124 -35 124 -6 0
-12 -12 -16 -27 -14 -69 -19 -64 -57 64 -46 153 -68 233 -70 253 -1 10 48 41
148 92 83 42 153 74 157 72 3 -2 2 -19 -2 -37z m-1130 -399 c-75 -61 -99 -80
-140 -110 -78 -58 -186 -128 -197 -128 -6 0 20 33 59 73 38 39 82 91 98 113
33 48 46 54 103 54 23 1 53 7 67 15 34 18 41 8 10 -17z m-1055 -100 c31 -33
146 -135 194 -173 33 -26 61 -54 61 -61 0 -3 -64 39 -142 92 -79 54 -164 111
-190 128 -26 17 -47 34 -47 39 -1 4 20 7 46 7 40 0 51 -5 78 -32z m2524 -233
c17 -44 42 -102 56 -130 24 -50 48 -135 37 -135 -19 0 -102 48 -107 63 -4 9
-10 17 -15 17 -8 0 -6 -77 4 -182 2 -21 1 -38 -2 -38 -3 0 -23 16 -43 36 -50
49 -75 41 -85 -24 -8 -53 -22 -97 -30 -90 -2 3 -13 50 -24 104 -11 54 -24 115
-30 134 -13 47 -13 50 8 50 39 0 80 76 108 200 15 68 32 112 59 149 7 10 12 2
21 -30 6 -24 26 -80 43 -124z m-282 -207 c14 -19 41 -119 67 -248 21 -109 37
-142 44 -92 4 28 19 29 27 2 4 -12 0 -31 -9 -45 -9 -13 -16 -31 -16 -39 0 -8
-27 -38 -59 -66 -33 -29 -61 -62 -63 -73 -2 -17 -12 -23 -43 -28 -30 -5 -49
-18 -81 -52 -22 -25 -56 -52 -75 -60 -34 -14 -89 -63 -89 -78 0 -5 -13 -9 -30
-9 l-29 0 36 76 c23 48 32 79 26 85 -6 6 -23 -19 -47 -71 -39 -82 -120 -190
-144 -190 -15 0 -57 -25 -88 -53 -12 -10 -35 -20 -50 -22 -25 -2 -27 -1 -10 9
81 49 228 205 315 334 100 149 172 302 242 517 17 50 32 96 34 103 3 6 11 12
18 12 8 0 19 -6 24 -12z m331 -68 c18 -11 36 -28 39 -38 4 -9 21 -41 40 -70
18 -29 33 -54 33 -57 0 -11 82 -127 184 -260 27 -35 32 -51 38 -125 3 -47 5
-86 3 -88 -1 -2 -15 8 -31 20 -31 25 -116 65 -149 70 -22 3 -93 120 -121 198
-9 25 -28 70 -42 100 -31 68 -31 66 -38 178 -4 53 -3 92 2 92 5 0 24 -9 42
-20z m-140 -107 c38 -33 29 -63 -20 -63 -28 0 -30 2 -24 28 4 15 7 35 7 45 0
22 1 22 37 -10z m-2944 -239 c3 -9 6 -73 6 -142 0 -126 12 -228 49 -412 11
-52 30 -151 42 -220 24 -134 37 -173 92 -262 19 -32 51 -108 71 -170 21 -62
61 -162 91 -223 63 -132 99 -226 120 -318 17 -76 20 -179 6 -223 -5 -16 -17
-55 -26 -88 -22 -72 -56 -112 -148 -173 -112 -73 -176 -130 -185 -166 -9 -33
-19 -43 -211 -192 -75 -58 -114 -82 -144 -88 -84 -15 -102 -1 -186 141 l-30
52 37 0 c39 0 184 45 259 80 24 11 47 20 53 20 12 0 13 17 2 24 -4 2 -28 -4
-52 -15 -74 -33 -220 -79 -253 -79 -68 0 -110 22 -185 100 -93 95 -146 198
-168 325 -9 48 -14 89 -12 91 6 6 161 -57 179 -72 28 -25 85 -17 124 17 19 17
35 37 35 44 0 15 22 25 52 25 12 0 39 19 61 42 37 39 39 44 34 89 -7 54 -6 55
72 65 l50 6 5 -33 c2 -19 4 -56 4 -84 -1 -50 35 -171 73 -247 30 -59 203 -167
183 -114 -3 8 -18 19 -33 26 -59 24 -120 92 -153 170 -27 65 -32 90 -36 187
-4 99 -2 114 13 119 10 4 26 -3 43 -19 30 -29 112 -68 124 -61 14 9 -2 24 -49
47 -60 29 -73 49 -48 76 26 30 12 37 -28 14 -78 -46 -229 -84 -332 -82 -61 1
-78 7 -103 39 l-19 25 56 1 c65 1 120 19 104 35 -7 7 -25 6 -56 -2 -65 -16
-77 -9 -77 46 0 40 3 47 26 55 14 6 43 10 64 10 21 0 42 5 45 10 3 6 1 10 -4
10 -6 0 -11 5 -11 10 0 6 8 10 19 10 24 0 140 43 208 78 48 24 57 25 100 15
27 -6 62 -15 78 -21 76 -28 165 -51 218 -57 54 -7 57 -6 57 14 0 18 -6 21 -47
21 -43 0 -188 35 -205 49 -4 3 0 34 9 68 15 61 12 100 -6 89 -5 -3 -19 -35
-32 -71 l-23 -66 -55 7 c-50 5 -63 2 -126 -29 -38 -19 -104 -46 -145 -60 -154
-52 -163 -46 -154 104 7 116 1 145 -64 289 -13 30 -30 72 -38 93 -7 20 -20 52
-28 70 -159 357 -206 528 -193 701 4 62 8 73 33 93 35 28 72 39 86 25 5 -5 25
-54 44 -107 19 -54 38 -103 43 -109 4 -6 19 -42 31 -81 25 -75 113 -262 147
-310 12 -17 31 -61 44 -100 28 -88 29 -89 83 -207 36 -80 49 -98 71 -104 14
-3 29 -3 33 1 10 10 2 344 -10 435 -5 41 -12 163 -15 270 -4 179 -3 200 17
260 12 39 33 78 52 97 28 29 38 33 84 33 38 0 53 -4 58 -16z m2120 -989 c-97
-106 -119 -133 -112 -140 4 -5 190 81 251 116 17 9 37 5 26 -5 -9 -8 -278
-136 -287 -136 -5 0 -30 -18 -55 -40 -25 -22 -49 -40 -54 -40 -4 0 -25 -11
-46 -25 -20 -14 -37 -21 -37 -16 0 5 24 25 53 44 29 20 73 57 97 84 142 156
234 252 238 248 3 -2 -31 -43 -74 -90z m-2647 -172 c28 -75 38 -123 24 -123
-5 0 -13 9 -16 20 -3 11 -11 20 -16 20 -12 0 -12 -36 1 -60 13 -24 31 -183 21
-190 -13 -9 -48 -75 -55 -102 -8 -37 19 -102 56 -133 24 -20 40 -25 87 -25 61
0 82 -12 95 -56 5 -15 -1 -26 -24 -42 -16 -12 -35 -22 -43 -22 -18 0 -64 50
-69 75 -4 17 -6 15 -13 -9 -7 -25 -4 -33 21 -52 15 -13 26 -26 23 -29 -3 -3
-76 67 -162 155 l-157 161 0 47 c0 26 -7 90 -15 142 -22 145 -20 182 12 215
44 44 93 64 153 65 l55 0 22 -57z m-268 -247 c6 -33 11 -79 11 -103 0 -24 6
-58 14 -76 8 -18 79 -95 158 -173 l143 -141 -18 -32 c-11 -17 -23 -32 -28 -32
-5 -1 -15 -2 -21 -3 -7 -1 -23 7 -35 17 l-23 20 22 38 c12 22 19 42 15 45 -9
10 -36 -15 -53 -48 -13 -25 -13 -30 1 -44 8 -8 15 -17 15 -20 0 -8 -53 8 -109
32 -29 13 -60 24 -69 24 -26 0 -74 68 -122 173 -66 143 -68 159 -29 249 39 87
98 167 110 147 4 -8 12 -41 18 -73z m4861 -93 c50 -35 81 -67 128 -137 73
-105 114 -201 167 -391 25 -93 57 -208 70 -255 37 -132 48 -202 43 -284 -4
-85 -23 -120 -56 -100 -72 42 -248 599 -252 797 0 37 3 67 8 67 6 0 24 -17 42
-37 67 -76 153 -317 175 -490 4 -29 5 -53 2 -53 -3 0 -24 56 -47 125 -23 69
-46 125 -51 125 -15 0 -11 -27 22 -128 36 -113 58 -162 77 -170 41 -15 38 90
-8 258 -71 260 -151 404 -220 397 -25 -2 -25 -3 -23 -89 1 -48 9 -122 18 -165
20 -97 73 -299 84 -322 4 -9 13 -37 19 -62 15 -59 86 -214 118 -256 33 -43 77
-46 98 -5 13 22 15 24 15 7 0 -18 -139 -196 -158 -203 -26 -9 -168 278 -204
413 -9 33 -29 103 -46 156 -35 114 -71 264 -100 410 -28 142 -29 306 -1 367
21 47 40 53 80 25z m-1462 -448 c4 -19 3 -19 -10 -2 -11 14 -25 18 -62 15 -46
-3 -50 -5 -62 -38 l-12 -35 -1 36 c-1 20 2 39 6 43 4 4 37 6 72 4 57 -3 66 -6
69 -23z m81 -98 c1 -12 -66 45 -73 62 -4 7 11 -2 33 -20 22 -19 40 -38 40 -42z
m-552 -15 c124 -44 160 -68 229 -148 73 -86 92 -162 96 -383 3 -167 2 -178
-20 -223 -13 -26 -43 -69 -67 -96 -82 -91 -291 -172 -444 -172 -110 1 -284 66
-339 128 -146 165 -189 535 -81 703 66 104 209 206 319 229 85 17 186 5 307
-38z m516 -4 c16 -36 37 -242 37 -371 0 -45 5 -150 12 -232 15 -199 16 -197
-70 -213 -74 -14 -117 -9 -126 14 -3 8 -8 85 -11 172 -7 171 -13 243 -50 568
-8 71 -8 71 95 84 96 13 97 13 113 -22z m50 -36 c4 -21 3 -31 -3 -27 -6 3 -10
20 -10 37 0 38 5 34 13 -10z m1830 -52 c35 -101 97 -315 97 -336 0 -9 -21 -46
-47 -83 l-48 -66 -6 45 c-4 25 -12 80 -18 124 -6 43 -20 117 -32 165 -33 135
-33 140 -8 193 12 27 26 45 29 41 4 -5 19 -42 33 -83z m-1807 -258 l2 -217 -8
200 c-4 110 -11 214 -15 230 -6 25 -5 28 6 17 11 -10 14 -61 15 -230z m-1306
153 c13 -15 14 -74 5 -232 -3 -52 -1 -120 6 -155 11 -61 23 -175 35 -330 6
-73 5 -76 -17 -83 -46 -15 -112 -13 -162 5 -41 14 -52 23 -54 42 -1 12 -7 102
-13 198 -6 96 -15 216 -20 265 -6 50 -13 131 -16 181 l-6 92 84 11 c103 14
131 18 139 20 4 0 12 -6 19 -14z m-1151 -37 c-2 -2 -17 -14 -34 -28 l-30 -25
24 28 c14 15 29 27 34 27 6 0 8 -1 6 -2z m-89 -73 c-13 -14 -26 -23 -28 -20
-4 4 38 44 47 45 3 0 -6 -11 -19 -25z m3954 -167 c18 -51 41 -105 92 -214 13
-28 40 -72 60 -98 l35 -46 -60 -68 c-127 -143 -402 -375 -606 -512 -138 -92
-279 -174 -273 -158 8 21 96 263 138 383 50 139 97 289 106 338 7 41 13 46
138 118 34 20 118 91 200 171 78 75 143 137 146 138 3 0 14 -24 24 -52z
m-4394 -186 c0 -10 -133 -98 -238 -157 -103 -59 -152 -67 -202 -33 -32 21 -35
28 -36 73 -1 43 -1 44 3 9 2 -25 12 -49 23 -59 30 -27 108 -30 150 -7 112 61
205 117 243 147 43 34 57 41 57 27z m3565 -224 c-3 -29 -10 -150 -15 -268 -10
-216 -29 -463 -36 -489 -12 -38 -14 8 -4 105 9 100 40 612 40 677 0 15 5 27
10 27 6 0 8 -20 5 -52z m-606 -106 c2 -117 0 -131 -20 -156 -26 -34 -64 -32
-91 4 -20 27 -49 176 -47 240 1 19 10 -21 21 -90 12 -75 26 -132 35 -142 21
-24 56 -23 78 2 15 17 17 33 10 151 -5 89 -4 130 3 125 6 -3 11 -59 11 -134z
m-1689 -39 c0 -2 -3 -3 -8 -3 -9 0 -32 73 -31 102 0 17 38 -79 39 -99z m298
-553 c12 -96 32 -217 44 -268 14 -55 22 -109 19 -130 -5 -35 -5 -34 -12 18 -4
30 -18 105 -32 165 -32 138 -58 419 -55 607 l1 143 8 -180 c3 -99 16 -259 27
-355z"/>
<path d="M2231 5947 c-1 -24 -5 -28 -23 -25 -13 2 -23 8 -23 15 0 6 -4 15 -8
20 -5 4 -7 -5 -5 -21 5 -43 32 -56 60 -29 18 18 20 26 10 45 -11 23 -11 23
-11 -5z"/>
<path d="M3125 5930 c-3 -4 0 -10 5 -12 6 -2 -14 -28 -45 -58 -43 -42 -57 -52
-67 -42 -9 9 -7 12 9 12 12 0 25 5 28 10 3 6 1 10 -6 10 -7 0 -28 12 -48 27
-67 52 -175 43 -243 -20 -33 -30 -81 -126 -97 -191 -7 -28 -23 -73 -37 -101
-28 -60 -29 -69 -9 -61 8 3 15 1 15 -4 0 -6 -7 -10 -15 -10 -22 0 -18 -18 8
-32 14 -8 68 -12 152 -12 150 0 179 11 229 81 23 33 30 55 34 111 l5 71 -38
34 c-38 35 -105 54 -142 40 -23 -9 -50 -37 -46 -49 2 -6 -3 -28 -11 -50 -8
-21 -15 -31 -15 -21 -1 10 4 27 9 38 7 13 7 25 1 36 -8 15 -10 13 -16 -12 -4
-17 -9 -38 -11 -47 -11 -37 8 -88 37 -103 39 -20 93 -19 111 3 20 25 39 72 33
83 -11 16 -30 10 -40 -13 -6 -14 -23 -25 -42 -29 -39 -8 -43 -5 -43 37 0 54 8
64 53 64 116 0 134 -150 25 -204 -26 -13 -38 -14 -72 -4 -23 6 -51 20 -64 32
-62 55 -47 205 28 277 51 50 149 43 188 -12 24 -35 65 -24 126 34 39 37 55 58
51 69 -8 20 -32 31 -40 18z m-325 -73 c0 -2 -12 -14 -27 -28 l-28 -24 24 28
c23 25 31 32 31 24z m108 -104 c-10 -2 -26 -2 -35 0 -10 3 -2 5 17 5 19 0 27
-2 18 -5z m57 -13 c3 -6 -1 -7 -9 -4 -18 7 -21 14 -7 14 6 0 13 -4 16 -10z
m-256 -92 c-1 -35 -4 -54 -6 -43 -3 11 -10 23 -15 26 -10 6 7 79 18 79 2 0 3
-28 3 -62z m298 -60 c-3 -8 -6 -5 -6 6 -1 11 2 17 5 13 3 -3 4 -12 1 -19z
m-240 -94 c10 -7 34 -14 53 -14 28 -1 31 -3 15 -9 -11 -5 -51 -6 -90 -4 -75 5
-101 13 -43 13 46 0 51 7 28 40 -11 16 -20 36 -20 47 1 11 8 3 20 -21 11 -21
27 -44 37 -52z m-70 10 c-10 -10 -29 17 -22 32 6 17 8 17 16 -5 5 -13 8 -25 6
-27z m-37 -24 c0 -5 -4 -10 -10 -10 -5 0 -10 5 -10 10 0 6 5 10 10 10 6 0 10
-4 10 -10z"/>
<path d="M3075 5880 c-3 -5 -1 -10 4 -10 6 0 11 5 11 10 0 6 -2 10 -4 10 -3 0
-8 -4 -11 -10z"/>
<path d="M2162 5738 c-18 -18 -15 -66 6 -77 20 -11 32 -5 48 23 22 41 -23 85
-54 54z m48 -33 c0 -9 -9 -15 -23 -15 -14 0 -24 6 -24 15 0 9 10 15 24 15 14
0 23 -6 23 -15z"/>
<path d="M2201 5470 c-10 -24 -10 -34 -1 -45 32 -39 85 8 61 54 -17 30 -44 26
-60 -9z m53 -15 c-4 -8 -15 -15 -25 -15 -10 0 -19 7 -19 15 0 9 9 15 25 15 18
0 23 -4 19 -15z"/>
<path d="M4969 5643 c-64 -71 -160 -246 -175 -321 -5 -22 0 -43 15 -72 29 -56
27 -82 -14 -151 -38 -65 -42 -84 -22 -104 16 -15 92 -55 107 -55 14 0 13 27
-2 32 -14 5 3 35 46 81 14 15 26 35 26 45 0 20 -78 -53 -91 -85 -10 -28 -20
-29 -50 -4 l-24 20 39 76 40 76 -19 47 c-28 68 -24 116 14 195 18 38 36 67 39
65 4 -2 24 -12 46 -22 36 -16 39 -16 57 0 10 9 19 23 19 31 0 16 -5 16 -29 1
-27 -16 -71 4 -71 32 0 11 19 41 42 66 50 54 76 55 93 5 18 -53 37 -52 29 1
-8 53 -12 57 -55 64 -28 5 -38 1 -60 -23z"/>
<path d="M4860 5389 c0 -7 30 -40 66 -75 59 -57 66 -67 60 -92 -4 -15 -10 -40
-13 -57 -8 -42 12 -20 25 28 16 58 -1 98 -64 156 -56 51 -74 61 -74 40z"/>
<path d="M3847 4924 c-127 -45 -297 -144 -311 -181 -12 -30 10 -35 41 -9 36
30 130 74 263 123 81 30 105 34 162 31 52 -3 69 0 73 11 20 52 -110 66 -228
25z"/>
<path d="M2414 4850 c-30 -12 -38 -28 -24 -45 10 -12 17 -12 51 2 46 18 71 13
151 -27 61 -31 174 -105 184 -121 3 -5 12 -9 20 -9 22 0 17 44 -8 67 -106 96
-297 164 -374 133z"/>
<path d="M3890 4531 c0 -6 12 -11 28 -12 92 -2 300 -39 365 -64 9 -4 17 -3 17
3 0 13 -65 37 -150 57 -92 20 -260 31 -260 16z"/>
<path d="M2987 4463 c-2 -5 -10 -33 -17 -63 -7 -30 -25 -103 -42 -162 l-29
-108 19 -42 c11 -24 28 -51 39 -60 30 -27 114 -69 124 -62 12 7 -8 34 -25 34
-23 0 -94 60 -106 90 -15 35 -10 76 23 195 32 115 43 185 29 185 -6 0 -13 -3
-15 -7z"/>
<path d="M3875 4319 c-9 -13 -23 -7 130 -57 112 -37 167 -61 283 -123 32 -18
41 -1 12 21 -53 41 -160 90 -280 129 -140 46 -136 45 -145 30z"/>
<path d="M3812 4121 c2 -5 51 -33 109 -63 58 -30 129 -74 158 -96 29 -23 57
-42 62 -42 22 0 4 23 -53 69 -98 79 -291 170 -276 132z"/>
<path d="M3183 4068 c-36 -17 -27 -30 15 -22 45 8 54 13 47 25 -8 12 -34 11
-62 -3z"/>
<path d="M3790 3877 c0 -7 -16 -21 -36 -31 -29 -13 -86 -19 -263 -28 -124 -6
-233 -11 -241 -11 -49 -3 -260 27 -288 40 -17 9 -35 13 -38 10 -9 -9 14 -35
37 -42 16 -6 19 -16 19 -78 0 -125 44 -244 112 -302 139 -118 354 -69 457 105
22 37 47 84 55 106 51 138 48 133 96 149 46 16 140 74 140 88 0 4 -11 7 -25 7
-14 0 -25 -6 -25 -13z m-627 -93 c57 -6 67 -9 61 -23 -3 -9 -9 -38 -12 -65 -6
-63 12 -54 28 13 6 28 17 54 23 60 7 5 77 12 157 15 80 4 160 9 178 12 31 5
32 4 26 -23 -14 -55 -85 -209 -118 -254 -61 -82 -191 -138 -277 -117 -100 23
-142 58 -185 153 -21 47 -28 80 -32 154 l-5 94 44 -6 c24 -3 75 -9 112 -13z"/>
<path d="M1961 3119 c-15 -6 -21 -13 -15 -19 10 -9 113 7 129 21 12 12 -84 10
-114 -2z"/>
<path d="M3909 2095 c-60 -17 -186 -79 -217 -107 -24 -22 -82 -131 -82 -154 0
-6 -9 -40 -20 -74 -36 -114 -22 -269 34 -378 8 -16 46 -58 84 -93 96 -89 170
-114 332 -113 112 0 117 1 192 38 92 44 138 92 189 197 49 100 63 164 56 260
-13 189 -150 356 -341 414 -89 27 -154 30 -227 10z m216 -42 c85 -24 135 -55
196 -119 95 -103 137 -223 124 -358 -8 -80 -65 -204 -123 -268 -108 -120 -320
-139 -507 -46 -77 38 -139 98 -177 172 -27 54 -30 68 -29 150 1 148 55 330
113 382 31 29 157 94 183 94 11 0 27 5 35 10 20 14 101 7 185 -17z"/>
<path d="M3965 1952 c-74 -28 -87 -36 -131 -84 -82 -89 -133 -242 -119 -353
12 -100 93 -217 179 -260 85 -42 250 -31 234 15 -2 8 -21 15 -42 17 -65 4
-109 24 -163 76 -111 105 -123 245 -34 378 61 91 191 135 263 91 78 -48 113
-192 65 -263 -21 -31 -27 -34 -82 -37 -54 -3 -60 -1 -81 25 -45 54 -22 133 39
133 24 0 35 6 44 25 25 54 -10 84 -84 72 -66 -11 -129 -94 -140 -186 -15 -132
152 -250 284 -200 99 37 164 191 141 333 -9 57 -42 131 -76 170 -54 60 -201
84 -297 48z m230 -53 c82 -42 117 -113 117 -239 1 -187 -126 -284 -273 -209
-60 30 -99 83 -99 132 1 92 70 180 138 174 26 -2 38 -8 40 -20 3 -13 -4 -17
-31 -17 -54 0 -80 -36 -81 -110 -1 -54 2 -63 31 -91 27 -28 37 -32 84 -30 92
2 139 53 146 158 4 62 2 74 -29 132 -45 87 -73 107 -149 104 -72 -3 -130 -28
-185 -79 -46 -43 -69 -82 -91 -158 -21 -68 -18 -121 8 -192 26 -70 68 -123
128 -161 55 -35 38 -42 -26 -10 -116 59 -188 183 -181 312 6 132 107 281 213
318 73 25 177 19 240 -14z"/>
<path d="M4652 1783 c-49 -9 -50 -103 -2 -103 27 0 70 43 70 69 0 17 -30 45
-42 40 -2 -1 -13 -4 -26 -6z m36 -40 c-4 -23 -48 -31 -48 -10 0 9 6 18 13 20
25 11 38 7 35 -10z"/>
<path d="M3358 1555 c-15 -33 0 -80 25 -80 10 0 25 12 34 26 14 24 14 28 -2
52 -22 34 -42 34 -57 2z m52 -42 c0 -17 -27 -16 -33 1 -8 19 14 40 25 23 4 -6
8 -18 8 -24z"/>
</g>
</svg>
